<?xml version="1.0" standalone="no"?>
<!DOCTYPE svg PUBLIC "-//W3C//DTD SVG 1.1//EN" "http://www.w3.org/Graphics/SVG/1.1/DTD/svg11.dtd" >
<svg xmlns="http://www.w3.org/2000/svg" xmlns:xlink="http://www.w3.org/1999/xlink" version="1.1">
<metadata>
Created by FontForge 20190801 at Thu Apr 19 22:11:28 2018
 By www-data
Modern and elegant sans serif font family.
</metadata>
<defs>
<font id="FontsFreeNetmont" horiz-adv-x="0" >
  <font-face 
    font-family="FontsFreeNetmont"
    font-weight="400"
    font-stretch="normal"
    units-per-em="1000"
    panose-1="0 0 8 0 0 0 0 0 0 0"
    ascent="784"
    descent="-216"
    x-height="540"
    cap-height="700"
    bbox="-43 -207 1013 795"
    underline-thickness="50"
    underline-position="-100"
    unicode-range="U+0020-201D"
  />
<missing-glyph horiz-adv-x="464" 
d="M380 734v-928h-294v928h294zM309 671h-153v-30h60v-34h-61v-31h154v31h-61v34h61v30zM248 552h-93v-97h154v32h-61v65zM216 520v-33h-31v33h31zM309 430h-154v-30h61v-35h-61v-30h93v65h61v30zM309 375h-31v-61h-123v-32h154v93zM309 262h-93v-52h32v21h30v-44h-93v75
h-30v-105h154v105zM309 101h-154v-105h154v105zM278 71v-44h-93v44h93zM309 -25h-154v-30h65l-65 -44v-31h154v31h-95l65 44h30v30z" />
    <glyph glyph-name="f_f.liga" unicode="ff" 
 />
    <glyph glyph-name="f_f_t.liga" unicode="fft" 
 />
    <glyph glyph-name="f_t.liga" unicode="ft" 
 />
    <glyph glyph-name="f_t_t.liga" unicode="ftt" 
 />
    <glyph glyph-name="r_f.liga" unicode="rf" 
 />
    <glyph glyph-name="t_f.liga" unicode="tf" 
 />
    <glyph glyph-name=".notdef" horiz-adv-x="464" 
d="M380 734v-928h-294v928h294zM309 671h-153v-30h60v-34h-61v-31h154v31h-61v34h61v30zM248 552h-93v-97h154v32h-61v65zM216 520v-33h-31v33h31zM309 430h-154v-30h61v-35h-61v-30h93v65h61v30zM309 375h-31v-61h-123v-32h154v93zM309 262h-93v-52h32v21h30v-44h-93v75
h-30v-105h154v105zM309 101h-154v-105h154v105zM278 71v-44h-93v44h93zM309 -25h-154v-30h65l-65 -44v-31h154v31h-95l65 44h30v30z" />
    <glyph glyph-name=".null" 
 />
    <glyph glyph-name="nonmarkingreturn" horiz-adv-x="333" 
 />
    <glyph glyph-name="space" unicode=" " horiz-adv-x="252" 
 />
    <glyph glyph-name="quotesingle" unicode="'" horiz-adv-x="236" 
d="M66 448v254h103v-254h-103z" />
    <glyph glyph-name="parenleft" unicode="(" horiz-adv-x="321" 
d="M190 -140q-143 204 -143 464t143 465h123q-67 -87 -111.5 -209.5t-44.5 -255.5q0 -134 44.5 -256.5t110.5 -207.5h-122z" />
    <glyph glyph-name="parenright" unicode=")" horiz-adv-x="321" 
d="M132 -140h-123q67 85 111.5 207.5t44.5 256.5q0 133 -45 255.5t-111 209.5h123q143 -205 143 -465t-143 -464z" />
    <glyph glyph-name="asterisk" unicode="*" horiz-adv-x="410" 
d="M373 560l-100 -34l67 -82l-65 -54l-70 89l-70 -89l-66 54l68 82l-99 34l28 79l97 -35v103h85v-103l96 35z" />
    <glyph glyph-name="plus" unicode="+" horiz-adv-x="534" 
d="M500 390v-102h-178v-188h-109v188h-179v102h179v183h109v-183h178z" />
    <glyph glyph-name="comma" unicode="," horiz-adv-x="258" 
d="M72 -144v58q62 15 62 86h-68v127h126v-118q0 -64 -32 -103t-88 -50z" />
    <glyph glyph-name="hyphen" unicode="-" horiz-adv-x="452" 
d="M66 226v108h321v-108h-321z" />
    <glyph glyph-name="period" unicode="." horiz-adv-x="252" 
d="M65 0v128h122v-128h-122z" />
    <glyph glyph-name="zero" unicode="0" horiz-adv-x="627" 
d="M314 -12q-121 0 -192 93t-71 252t70.5 251.5t192.5 92.5q121 0 191.5 -92.5t70.5 -251.5t-71 -252t-191 -93zM314 90q72 0 112.5 64t40.5 179q0 76 -18.5 130.5t-53 83t-81.5 28.5q-48 0 -83 -28.5t-53 -83t-18 -130.5q0 -115 40.5 -179t113.5 -64z" />
    <glyph glyph-name="one" unicode="1" horiz-adv-x="343" 
d="M29 665h224v-665h-107v568h-117v97z" />
    <glyph glyph-name="three" unicode="3" horiz-adv-x="542" 
d="M322 416q78 -14 125.5 -71t47.5 -136q0 -96 -65.5 -158.5t-163.5 -62.5q-95 0 -157.5 59.5t-66.5 153.5h108q3 -50 35 -80.5t81 -30.5q52 0 86 34.5t34 87.5q0 26 -10 48.5t-27 38.5t-41 24.5t-52 8.5h-84v21l138 214h-248v98h407v-22z" />
    <glyph glyph-name="four" unicode="4" horiz-adv-x="547" 
d="M518 230v-95h-64v-135h-104v135h-331v22l227 508h110l-194 -435h190l18 185h84v-185h64z" />
    <glyph glyph-name="five" unicode="5" horiz-adv-x="533" 
d="M260 426q102 0 167.5 -62t65.5 -155q0 -95 -65 -158t-161.5 -63t-160 60t-66.5 153h108q2 -49 35 -80t83 -31q51 0 84.5 34t33.5 85q0 17 -4.5 33t-12.5 29.5t-19.5 24.5t-25.5 19t-30.5 12t-35.5 4h-176l-13 15l36 319h344v-98h-257l-15 -141h85z" />
    <glyph glyph-name="six" unicode="6" horiz-adv-x="562" 
d="M309 437q93 0 158.5 -60.5t65.5 -156.5q0 -67 -31 -120t-86.5 -82.5t-125.5 -29.5q-108 0 -176.5 65t-68.5 167q0 92 72 217l133 232h118q-115 -203 -138 -247q39 15 79 15zM289 90q39 0 70 16.5t48 46t17 67.5q0 58 -38 94.5t-97 36.5q-58 0 -96.5 -37t-38.5 -94
t38.5 -93.5t96.5 -36.5z" />
    <glyph glyph-name="eight" unicode="8" horiz-adv-x="581" 
d="M444 355q41 -25 64.5 -66.5t23.5 -92.5q0 -91 -68 -149.5t-174 -58.5q-71 0 -126 26t-85 73.5t-30 108.5q0 50 23.5 91.5t65.5 67.5q-16 12 -28.5 27.5t-21 33t-13 37.5t-4.5 41q0 81 61 132.5t158.5 51.5t158 -51t60.5 -133q0 -42 -17.5 -79t-47.5 -60zM290 587
q-50 0 -81.5 -26.5t-31.5 -67.5q0 -42 31.5 -69t81.5 -27t81.5 27t31.5 69q0 27 -14 48.5t-40 33.5t-59 12zM290 82q60 0 96.5 31.5t36.5 81.5t-36.5 82t-96.5 32q-59 0 -95.5 -32t-36.5 -82t36.5 -81.5t95.5 -31.5z" />
    <glyph glyph-name="A" unicode="A" horiz-adv-x="706" 
d="M568 0l-61 152h-312l-60 -152h-122l282 700h108l289 -700h-124zM350 550l-115 -295h232z" />
    <glyph glyph-name="C" unicode="C" horiz-adv-x="774" 
d="M404 -12q-155 0 -257.5 102.5t-102.5 259.5t102.5 259.5t257.5 102.5q82 0 152 -32t117.5 -91t65.5 -137h-116q-25 70 -83 109.5t-136 39.5q-105 0 -174 -71t-69 -180.5t69 -180t174 -70.5q80 0 139 42.5t82 116.5h117q-27 -123 -119 -196.5t-219 -73.5z" />
    <glyph glyph-name="I" unicode="I" horiz-adv-x="293" 
d="M89 0v700h115v-700h-115z" />
    <glyph glyph-name="P" unicode="P" horiz-adv-x="615" 
d="M348 700q67 0 121.5 -30t85.5 -83t31 -118q0 -99 -68 -165t-170 -66h-144v-238h-115v700h259zM342 347q28 0 51.5 9t40.5 25t26.5 39t9.5 49q0 35 -16.5 62.5t-45.5 43.5t-66 16h-138v-244h138z" />
    <glyph glyph-name="T" unicode="T" horiz-adv-x="568" 
d="M547 700v-107h-206v-593h-114v593h-206v107h526z" />
    <glyph glyph-name="U" unicode="U" horiz-adv-x="725" 
d="M363 -13q-122 0 -202 77t-80 198v438h116v-431q0 -77 46 -124.5t120 -47.5q73 0 119 47.5t46 124.5v431h115v-438q0 -121 -79.5 -198t-200.5 -77z" />
    <glyph glyph-name="W" unicode="W" horiz-adv-x="1033" 
d="M893 700h120l-218 -700h-102l-177 452l-173 -452h-102l-223 700h122l158 -517l196 507h43l201 -507z" />
    <glyph glyph-name="bracketleft" unicode="[" horiz-adv-x="341" 
d="M89 -144v939h221v-94h-117v-749h119v-96h-223z" />
    <glyph glyph-name="backslash" unicode="\" horiz-adv-x="462" 
d="M438 -74h-116l-297 835h116z" />
    <glyph glyph-name="bracketright" unicode="]" horiz-adv-x="341" 
d="M252 -144h-222v96h118v749h-116v94h220v-939z" />
    <glyph glyph-name="asciicircum" unicode="^" horiz-adv-x="548" 
d="M31 339l235 363h18l232 -363h-125l-118 189l-117 -189h-125z" />
    <glyph glyph-name="underscore" unicode="_" horiz-adv-x="516" 
d="M0 -149v106h516v-106h-516z" />
    <glyph glyph-name="grave" unicode="`" horiz-adv-x="600" 
d="M292 602h-85l-95 152h118z" />
    <glyph glyph-name="a" unicode="a" horiz-adv-x="696" 
d="M531 540h86v-540h-90l-11 66q-78 -79 -195 -79q-121 0 -201.5 81t-80.5 202.5t80.5 202t201.5 80.5q119 0 197 -80zM329.5 93q76.5 0 126 50.5t49.5 127t-49.5 126.5t-126.5 50q-50 0 -90.5 -23t-63.5 -63.5t-23 -90.5q0 -76 50.5 -126.5t127 -50.5z" />
    <glyph glyph-name="b" unicode="b" horiz-adv-x="688" 
d="M368 553q122 0 201.5 -80.5t79.5 -202.5t-79.5 -202.5t-201.5 -80.5q-113 0 -191 74l-14 -61h-84v734h111v-244q75 63 178 63zM359 93q76 0 126 50.5t50 126.5t-50 126.5t-126 50.5q-50 0 -90.5 -23t-63.5 -63.5t-23 -90.5q0 -75 50.5 -126t126.5 -51z" />
    <glyph glyph-name="c" unicode="c" horiz-adv-x="622" 
d="M322 -13q-120 0 -201.5 81.5t-81.5 202t81.5 201.5t202.5 81q99 0 172 -56t95 -149h-110q-21 46 -63 72.5t-95 26.5q-47 0 -86 -23t-61.5 -63.5t-22.5 -90.5q0 -75 49 -126t121 -51q53 0 94.5 27t63.5 77h112q-23 -95 -96.5 -152.5t-173.5 -57.5z" />
    <glyph glyph-name="d" unicode="d" horiz-adv-x="688" 
d="M498 734h111v-734h-84l-14 61q-78 -74 -191 -74q-122 0 -201.5 80.5t-79.5 202.5t79.5 202.5t201.5 80.5q103 0 178 -63v244zM329 93q76 0 126.5 50.5t50.5 126.5q0 50 -23 90.5t-63.5 63.5t-90.5 23t-90.5 -23t-63 -63.5t-22.5 -90.5q0 -76 50 -126.5t126 -50.5z" />
    <glyph glyph-name="e" unicode="e" horiz-adv-x="631" 
d="M592 269q0 -15 -2 -37h-438q10 -65 54.5 -103t110.5 -38q32 0 60 9.5t49.5 27t35.5 42.5h117q-32 -86 -102 -134.5t-160 -48.5q-119 0 -198.5 81t-79.5 202t79.5 202t198.5 81q81 0 144 -38.5t97 -103t34 -142.5zM317 453q-62 0 -105.5 -35t-57.5 -96h327
q-10 41 -33 70.5t-56.5 45t-74.5 15.5z" />
    <glyph glyph-name="f" unicode="f" horiz-adv-x="399" 
d="M385 535v-92h-152v-443h-111v443h-101v92h101v46q0 171 172 171h90v-89h-68q-46 0 -66.5 -20t-20.5 -65v-43h156z" />
    <glyph glyph-name="g" unicode="g" horiz-adv-x="673" 
d="M521 540h73v-469q0 -86 -32.5 -148.5t-93.5 -96t-144 -33.5q-103 0 -173 50.5t-91 140.5h111q15 -44 57.5 -68t94.5 -24q72 0 117 44t45 120v24q-75 -64 -179 -64q-112 0 -189.5 77.5t-77.5 190.5t77.5 191t189.5 78q119 0 197 -83zM319 119q35 0 66 12.5t53 34
t34.5 52.5t12.5 66q0 72 -47 119t-119 47t-119.5 -47.5t-47.5 -118.5t47.5 -118t119.5 -47z" />
    <glyph glyph-name="h" unicode="h" horiz-adv-x="642" 
d="M365 552q95 0 150 -61t55 -166v-325h-111v303q0 49 -14 82t-41.5 50.5t-68.5 17.5q-63 0 -104 -46t-41 -118v-289h-111v734h111v-255q66 73 175 73z" />
    <glyph glyph-name="i" unicode="i" horiz-adv-x="269" 
d="M77 624v114h115v-114h-115zM79 0v540h111v-540h-111z" />
    <glyph glyph-name="j" unicode="j" horiz-adv-x="281" 
d="M90 624v114h115v-114h-115zM-43 -194v102h39q46 0 70.5 25t24.5 71v536h111v-544q0 -85 -52.5 -137.5t-137.5 -52.5h-55z" />
    <glyph glyph-name="k" unicode="k" horiz-adv-x="568" 
d="M430 0l-161 230h-68v-230h-111v734h111v-403h68l146 209h132l-183 -259l202 -281h-136z" />
    <glyph glyph-name="l" unicode="l" horiz-adv-x="269" 
d="M79 0v734h111v-734h-111z" />
    <glyph glyph-name="m" unicode="m" horiz-adv-x="945" 
d="M683 552q85 0 138 -58t53 -151v-343h-111v316q0 43 -12.5 74t-36 47t-56.5 16q-55 0 -91 -44.5t-36 -113.5v-295h-109v316q0 66 -27 101.5t-78 35.5q-54 0 -90.5 -44.5t-36.5 -113.5v-295h-111v540h79l19 -70q31 39 75 60.5t93 21.5q54 0 96 -25t66 -69q29 44 76 69
t100 25z" />
    <glyph glyph-name="n" unicode="n" horiz-adv-x="642" 
d="M365 552q94 0 149.5 -63t55.5 -164v-325h-111v303q0 73 -31.5 111.5t-92.5 38.5q-63 0 -104 -46t-41 -118v-289h-111v540h77l22 -75q31 41 79.5 64t107.5 23z" />
    <glyph glyph-name="o" unicode="o" horiz-adv-x="656" 
d="M328 -13q-124 0 -206.5 80.5t-82.5 202.5q0 80 37.5 145t104 101.5t147.5 36.5t147.5 -36.5t104 -101.5t37.5 -145q0 -122 -82.5 -202.5t-206.5 -80.5zM328 93q51 0 91 22.5t62.5 63t22.5 91.5q0 77 -49.5 127t-126.5 50t-126.5 -50t-49.5 -127t49.5 -127t126.5 -50z" />
    <glyph glyph-name="p" unicode="p" horiz-adv-x="689" 
d="M369 553q80 0 144 -36.5t100 -101.5t36 -145q0 -122 -79.5 -202.5t-200.5 -80.5q-104 0 -179 65v-246h-111v734h75l21 -66q78 79 194 79zM360.5 93q76.5 0 126.5 50.5t50 126.5t-50 126.5t-126 50.5q-50 0 -91 -23t-63.5 -63.5t-22.5 -90.5q0 -76 50 -126.5t126.5 -50.5z
" />
    <glyph glyph-name="q" unicode="q" horiz-adv-x="689" 
d="M535 540h74v-734h-111v246q-75 -65 -179 -65q-121 0 -200.5 80.5t-79.5 202.5t79.5 202.5t200.5 80.5q117 0 195 -79zM328 93q76 0 126.5 50.5t50.5 126.5t-50.5 126.5t-126.5 50.5q-50 0 -90.5 -23t-63 -63.5t-22.5 -90.5q0 -76 50 -126.5t126 -50.5z" />
    <glyph glyph-name="r" unicode="r" horiz-adv-x="394" 
d="M338 543h48v-105h-58q-138 0 -138 -150v-288h-111v540h75l19 -74q58 77 165 77z" />
    <glyph glyph-name="s" unicode="s" horiz-adv-x="518" 
d="M259 -13q-99 0 -159 50t-62 134h109q2 -41 33.5 -63.5t82.5 -22.5q30 0 53.5 8t37.5 24t14 38q0 15 -7 26.5t-17 18.5t-28.5 13t-33 9t-38.5 7q-25 4 -40 7t-38 9.5t-37.5 14t-31.5 19.5t-26.5 27t-16 36.5t-6.5 47.5q0 73 57.5 118t151.5 45t151 -47t58 -126h-105
q-1 38 -29 58.5t-77 20.5q-46 0 -73 -18t-27 -47q0 -12 4 -21t13.5 -16t18 -11.5t25.5 -8.5t28 -6t32 -5l40.5 -7.5t38.5 -9t39 -13.5t32.5 -19.5t28 -28t16.5 -38.5t7 -50q0 -79 -60 -126t-159 -47z" />
    <glyph glyph-name="t" unicode="t" horiz-adv-x="410" 
d="M320 101h61v-101h-82q-59 0 -102 23t-66 66.5t-23 102.5v253h-97v21l188 200h19v-126h160v-95h-159v-244q0 -48 26 -74t75 -26z" />
    <glyph glyph-name="u" unicode="u" horiz-adv-x="632" 
d="M316 -13q-111 0 -178 66t-67 175v312h111v-296q0 -71 36 -111t98 -40q63 0 99 40.5t36 110.5v296h111v-312q0 -109 -67 -175t-179 -66z" />
    <glyph glyph-name="v" unicode="v" horiz-adv-x="577" 
d="M449 540h114l-222 -540h-102l-228 540h117l162 -401z" />
    <glyph glyph-name="w" unicode="w" horiz-adv-x="850" 
d="M724 540h111l-181 -540h-90l-139 329l-139 -329h-90l-180 540h114l122 -364l155 358h36l157 -361z" />
    <glyph glyph-name="x" unicode="x" horiz-adv-x="527" 
d="M523 0h-125l-135 206l-136 -206h-122l192 279l-177 261h124l120 -182l123 182h122l-180 -255z" />
    <glyph glyph-name="y" unicode="y" horiz-adv-x="593" 
d="M464 540h119l-248 -550q-47 -103 -95.5 -143.5t-129.5 -40.5h-55v100h46q53 0 78 21t55 87l12 25l-235 501h121l171 -377z" />
    <glyph glyph-name="z" unicode="z" horiz-adv-x="490" 
d="M197 103h260v-103h-433v14l261 424h-241v102h412v-17z" />
    <glyph glyph-name="quoteright" unicode="&#x2019;" horiz-adv-x="236" 
d="M68 451v57q62 15 62 86h-68v127h126v-117q0 -65 -32 -103.5t-88 -49.5z" />
    <glyph glyph-name="quotesinglbase" unicode="&#x201a;" horiz-adv-x="258" 
d="M72 -144v58q62 15 62 86h-68v127h126v-118q0 -64 -32 -103t-88 -50z" />
    <glyph glyph-name="quotedblleft" unicode="&#x201c;" horiz-adv-x="439" 
d="M177 760v-57q-62 -16 -62 -87h68v-126h-126v117q0 65 31.5 103.5t88.5 49.5zM374 760v-57q-62 -16 -62 -87h68v-126h-126v117q0 65 32 103.5t88 49.5z" />
    <glyph glyph-name="quotedblright" unicode="&#x201d;" horiz-adv-x="433" 
d="M68 451v57q62 15 62 86h-68v127h126v-117q0 -65 -32 -103.5t-88 -49.5zM265 451v57q62 15 62 86h-68v127h126v-117q0 -65 -32 -103.5t-88 -49.5z" />
    <glyph glyph-name="exclam" 
 />
    <glyph glyph-name="quotedbl" 
 />
    <glyph glyph-name="numbersign" 
 />
    <glyph glyph-name="dollar" 
 />
    <glyph glyph-name="percent" 
 />
    <glyph glyph-name="ampersand" 
 />
    <glyph glyph-name="slash" 
 />
    <glyph glyph-name="two" 
 />
    <glyph glyph-name="seven" 
 />
    <glyph glyph-name="nine" 
 />
    <glyph glyph-name="colon" 
 />
    <glyph glyph-name="semicolon" 
 />
    <glyph glyph-name="less" 
 />
    <glyph glyph-name="equal" 
 />
    <glyph glyph-name="greater" 
 />
    <glyph glyph-name="question" 
 />
    <glyph glyph-name="at" 
 />
    <glyph glyph-name="B" 
 />
    <glyph glyph-name="D" 
 />
    <glyph glyph-name="E" 
 />
    <glyph glyph-name="F" 
 />
    <glyph glyph-name="G" 
 />
    <glyph glyph-name="H" 
 />
    <glyph glyph-name="J" 
 />
    <glyph glyph-name="K" 
 />
    <glyph glyph-name="L" 
 />
    <glyph glyph-name="M" 
 />
    <glyph glyph-name="N" 
 />
    <glyph glyph-name="O" 
 />
    <glyph glyph-name="Q" 
 />
    <glyph glyph-name="R" 
 />
    <glyph glyph-name="S" 
 />
    <glyph glyph-name="V" 
 />
    <glyph glyph-name="X" 
 />
    <glyph glyph-name="Y" 
 />
    <glyph glyph-name="Z" 
 />
    <glyph glyph-name="braceleft" 
 />
    <glyph glyph-name="bar" 
 />
    <glyph glyph-name="braceright" 
 />
    <glyph glyph-name="asciitilde" 
 />
    <glyph glyph-name="uni00A0" 
 />
    <glyph glyph-name="exclamdown" 
 />
    <glyph glyph-name="cent" 
 />
    <glyph glyph-name="sterling" 
 />
    <glyph glyph-name="currency" 
 />
    <glyph glyph-name="yen" 
 />
    <glyph glyph-name="brokenbar" 
 />
    <glyph glyph-name="section" 
 />
    <glyph glyph-name="dieresis" 
 />
    <glyph glyph-name="copyright" 
 />
    <glyph glyph-name="ordfeminine" 
 />
    <glyph glyph-name="guillemotleft" 
 />
    <glyph glyph-name="logicalnot" 
 />
    <glyph glyph-name="registered" 
 />
    <glyph glyph-name="macron" 
 />
    <glyph glyph-name="degree" 
 />
    <glyph glyph-name="plusminus" 
 />
    <glyph glyph-name="acute" 
 />
    <glyph glyph-name="paragraph" 
 />
    <glyph glyph-name="periodcentered" 
 />
    <glyph glyph-name="cedilla" 
 />
    <glyph glyph-name="ordmasculine" 
 />
    <glyph glyph-name="guillemotright" 
 />
    <glyph glyph-name="onequarter" 
 />
    <glyph glyph-name="onehalf" 
 />
    <glyph glyph-name="threequarters" 
 />
    <glyph glyph-name="questiondown" 
 />
    <glyph glyph-name="Agrave" 
 />
    <glyph glyph-name="Aacute" 
 />
    <glyph glyph-name="Acircumflex" 
 />
    <glyph glyph-name="Atilde" 
 />
    <glyph glyph-name="Adieresis" 
 />
    <glyph glyph-name="Aring" 
 />
    <glyph glyph-name="AE" 
 />
    <glyph glyph-name="Ccedilla" 
 />
    <glyph glyph-name="Egrave" 
 />
    <glyph glyph-name="Eacute" 
 />
    <glyph glyph-name="Ecircumflex" 
 />
    <glyph glyph-name="Edieresis" 
 />
    <glyph glyph-name="Igrave" 
 />
    <glyph glyph-name="Iacute" 
 />
    <glyph glyph-name="Icircumflex" 
 />
    <glyph glyph-name="Idieresis" 
 />
    <glyph glyph-name="Eth" 
 />
    <glyph glyph-name="Ntilde" 
 />
    <glyph glyph-name="Ograve" 
 />
    <glyph glyph-name="Oacute" 
 />
    <glyph glyph-name="Ocircumflex" 
 />
    <glyph glyph-name="Otilde" 
 />
    <glyph glyph-name="Odieresis" 
 />
    <glyph glyph-name="multiply" 
 />
    <glyph glyph-name="Oslash" 
 />
    <glyph glyph-name="Ugrave" 
 />
    <glyph glyph-name="Uacute" 
 />
    <glyph glyph-name="Ucircumflex" 
 />
    <glyph glyph-name="Udieresis" 
 />
    <glyph glyph-name="Yacute" 
 />
    <glyph glyph-name="Thorn" 
 />
    <glyph glyph-name="germandbls" 
 />
    <glyph glyph-name="agrave" 
 />
    <glyph glyph-name="aacute" 
 />
    <glyph glyph-name="acircumflex" 
 />
    <glyph glyph-name="atilde" 
 />
    <glyph glyph-name="adieresis" 
 />
    <glyph glyph-name="aring" 
 />
    <glyph glyph-name="ae" 
 />
    <glyph glyph-name="ccedilla" 
 />
    <glyph glyph-name="egrave" 
 />
    <glyph glyph-name="eacute" 
 />
    <glyph glyph-name="ecircumflex" 
 />
    <glyph glyph-name="edieresis" 
 />
    <glyph glyph-name="igrave" 
 />
    <glyph glyph-name="iacute" 
 />
    <glyph glyph-name="icircumflex" 
 />
    <glyph glyph-name="idieresis" 
 />
    <glyph glyph-name="eth" 
 />
    <glyph glyph-name="ntilde" 
 />
    <glyph glyph-name="ograve" 
 />
    <glyph glyph-name="oacute" 
 />
    <glyph glyph-name="ocircumflex" 
 />
    <glyph glyph-name="otilde" 
 />
    <glyph glyph-name="odieresis" 
 />
    <glyph glyph-name="divide" 
 />
    <glyph glyph-name="oslash" 
 />
    <glyph glyph-name="ugrave" 
 />
    <glyph glyph-name="uacute" 
 />
    <glyph glyph-name="ucircumflex" 
 />
    <glyph glyph-name="udieresis" 
 />
    <glyph glyph-name="yacute" 
 />
    <glyph glyph-name="thorn" 
 />
    <glyph glyph-name="ydieresis" 
 />
    <glyph glyph-name="Amacron" 
 />
    <glyph glyph-name="amacron" 
 />
    <glyph glyph-name="Abreve" 
 />
    <glyph glyph-name="abreve" 
 />
    <glyph glyph-name="Aogonek" 
 />
    <glyph glyph-name="aogonek" 
 />
    <glyph glyph-name="Cacute" 
 />
    <glyph glyph-name="cacute" 
 />
    <glyph glyph-name="Ccircumflex" 
 />
    <glyph glyph-name="ccircumflex" 
 />
    <glyph glyph-name="Cdotaccent" 
 />
    <glyph glyph-name="cdotaccent" 
 />
    <glyph glyph-name="Ccaron" 
 />
    <glyph glyph-name="ccaron" 
 />
    <glyph glyph-name="Dcaron" 
 />
    <glyph glyph-name="dcaron" 
 />
    <glyph glyph-name="Dcroat" 
 />
    <glyph glyph-name="dcroat" 
 />
    <glyph glyph-name="Emacron" 
 />
    <glyph glyph-name="emacron" 
 />
    <glyph glyph-name="Ebreve" 
 />
    <glyph glyph-name="ebreve" 
 />
    <glyph glyph-name="Edotaccent" 
 />
    <glyph glyph-name="edotaccent" 
 />
    <glyph glyph-name="Eogonek" 
 />
    <glyph glyph-name="eogonek" 
 />
    <glyph glyph-name="Ecaron" 
 />
    <glyph glyph-name="ecaron" 
 />
    <glyph glyph-name="Gcircumflex" 
 />
    <glyph glyph-name="gcircumflex" 
 />
    <glyph glyph-name="Gbreve" 
 />
    <glyph glyph-name="gbreve" 
 />
    <glyph glyph-name="Gdotaccent" 
 />
    <glyph glyph-name="gdotaccent" 
 />
    <glyph glyph-name="uni0122" 
 />
    <glyph glyph-name="uni0123" 
 />
    <glyph glyph-name="Hcircumflex" 
 />
    <glyph glyph-name="hcircumflex" 
 />
    <glyph glyph-name="Hbar" 
 />
    <glyph glyph-name="hbar" 
 />
    <glyph glyph-name="Itilde" 
 />
    <glyph glyph-name="itilde" 
 />
    <glyph glyph-name="Imacron" 
 />
    <glyph glyph-name="imacron" 
 />
    <glyph glyph-name="Ibreve" 
 />
    <glyph glyph-name="ibreve" 
 />
    <glyph glyph-name="Iogonek" 
 />
    <glyph glyph-name="iogonek" 
 />
    <glyph glyph-name="Idotaccent" 
 />
    <glyph glyph-name="dotlessi" 
 />
    <glyph glyph-name="IJ" 
 />
    <glyph glyph-name="ij" 
 />
    <glyph glyph-name="Jcircumflex" 
 />
    <glyph glyph-name="jcircumflex" 
 />
    <glyph glyph-name="uni0136" 
 />
    <glyph glyph-name="uni0137" 
 />
    <glyph glyph-name="kgreenlandic" 
 />
    <glyph glyph-name="Lacute" 
 />
    <glyph glyph-name="lacute" 
 />
    <glyph glyph-name="uni013B" 
 />
    <glyph glyph-name="uni013C" 
 />
    <glyph glyph-name="Lcaron" 
 />
    <glyph glyph-name="lcaron" 
 />
    <glyph glyph-name="Ldot" 
 />
    <glyph glyph-name="ldot" 
 />
    <glyph glyph-name="Lslash" 
 />
    <glyph glyph-name="lslash" 
 />
    <glyph glyph-name="Nacute" 
 />
    <glyph glyph-name="nacute" 
 />
    <glyph glyph-name="uni0145" 
 />
    <glyph glyph-name="uni0146" 
 />
    <glyph glyph-name="Ncaron" 
 />
    <glyph glyph-name="ncaron" 
 />
    <glyph glyph-name="Eng" 
 />
    <glyph glyph-name="eng" 
 />
    <glyph glyph-name="Omacron" 
 />
    <glyph glyph-name="omacron" 
 />
    <glyph glyph-name="Obreve" 
 />
    <glyph glyph-name="obreve" 
 />
    <glyph glyph-name="Ohungarumlaut" 
 />
    <glyph glyph-name="ohungarumlaut" 
 />
    <glyph glyph-name="OE" 
 />
    <glyph glyph-name="oe" 
 />
    <glyph glyph-name="Racute" 
 />
    <glyph glyph-name="racute" 
 />
    <glyph glyph-name="uni0156" 
 />
    <glyph glyph-name="uni0157" 
 />
    <glyph glyph-name="Rcaron" 
 />
    <glyph glyph-name="rcaron" 
 />
    <glyph glyph-name="Sacute" 
 />
    <glyph glyph-name="sacute" 
 />
    <glyph glyph-name="Scircumflex" 
 />
    <glyph glyph-name="scircumflex" 
 />
    <glyph glyph-name="Scedilla" 
 />
    <glyph glyph-name="scedilla" 
 />
    <glyph glyph-name="Scaron" 
 />
    <glyph glyph-name="scaron" 
 />
    <glyph glyph-name="uni0162" 
 />
    <glyph glyph-name="uni0163" 
 />
    <glyph glyph-name="Tcaron" 
 />
    <glyph glyph-name="tcaron" 
 />
    <glyph glyph-name="Tbar" 
 />
    <glyph glyph-name="tbar" 
 />
    <glyph glyph-name="Utilde" 
 />
    <glyph glyph-name="utilde" 
 />
    <glyph glyph-name="Umacron" 
 />
    <glyph glyph-name="umacron" 
 />
    <glyph glyph-name="Ubreve" 
 />
    <glyph glyph-name="ubreve" 
 />
    <glyph glyph-name="Uring" 
 />
    <glyph glyph-name="uring" 
 />
    <glyph glyph-name="Uhungarumlaut" 
 />
    <glyph glyph-name="uhungarumlaut" 
 />
    <glyph glyph-name="Uogonek" 
 />
    <glyph glyph-name="uogonek" 
 />
    <glyph glyph-name="Wcircumflex" 
 />
    <glyph glyph-name="wcircumflex" 
 />
    <glyph glyph-name="Ycircumflex" 
 />
    <glyph glyph-name="ycircumflex" 
 />
    <glyph glyph-name="Ydieresis" 
 />
    <glyph glyph-name="Zacute" 
 />
    <glyph glyph-name="zacute" 
 />
    <glyph glyph-name="Zdotaccent" 
 />
    <glyph glyph-name="zdotaccent" 
 />
    <glyph glyph-name="Zcaron" 
 />
    <glyph glyph-name="zcaron" 
 />
    <glyph glyph-name="longs" 
 />
    <glyph glyph-name="florin" 
 />
    <glyph glyph-name="AEacute" 
 />
    <glyph glyph-name="aeacute" 
 />
    <glyph glyph-name="Oslashacute" 
 />
    <glyph glyph-name="oslashacute" 
 />
    <glyph glyph-name="uni0218" 
 />
    <glyph glyph-name="uni0219" 
 />
    <glyph glyph-name="uni021A" 
 />
    <glyph glyph-name="uni021B" 
 />
    <glyph glyph-name="circumflex" 
 />
    <glyph glyph-name="caron" 
 />
    <glyph glyph-name="breve" 
 />
    <glyph glyph-name="dotaccent" 
 />
    <glyph glyph-name="ring" 
 />
    <glyph glyph-name="ogonek" 
 />
    <glyph glyph-name="tilde" 
 />
    <glyph glyph-name="hungarumlaut" 
 />
    <glyph glyph-name="gravecomb" 
 />
    <glyph glyph-name="acutecomb" 
 />
    <glyph glyph-name="uni0302" 
 />
    <glyph glyph-name="tildecomb" 
 />
    <glyph glyph-name="uni0304" 
 />
    <glyph glyph-name="uni0306" 
 />
    <glyph glyph-name="uni0307" 
 />
    <glyph glyph-name="uni0308" 
 />
    <glyph glyph-name="uni030A" 
 />
    <glyph glyph-name="uni030B" 
 />
    <glyph glyph-name="uni030C" 
 />
    <glyph glyph-name="uni0312" 
 />
    <glyph glyph-name="uni0326" 
 />
    <glyph glyph-name="uni0327" 
 />
    <glyph glyph-name="uni0328" 
 />
    <glyph glyph-name="uni0335" 
 />
    <glyph glyph-name="uni0337" 
 />
    <glyph glyph-name="tonos" 
 />
    <glyph glyph-name="dieresistonos" 
 />
    <glyph glyph-name="Alphatonos" 
 />
    <glyph glyph-name="Epsilontonos" 
 />
    <glyph glyph-name="Etatonos" 
 />
    <glyph glyph-name="Iotatonos" 
 />
    <glyph glyph-name="Omicrontonos" 
 />
    <glyph glyph-name="Upsilontonos" 
 />
    <glyph glyph-name="Omegatonos" 
 />
    <glyph glyph-name="iotadieresistonos" 
 />
    <glyph glyph-name="Alpha" 
 />
    <glyph glyph-name="Beta" 
 />
    <glyph glyph-name="Gamma" 
 />
    <glyph glyph-name="uni0394" 
 />
    <glyph glyph-name="Epsilon" 
 />
    <glyph glyph-name="Zeta" 
 />
    <glyph glyph-name="Eta" 
 />
    <glyph glyph-name="Theta" 
 />
    <glyph glyph-name="Iota" 
 />
    <glyph glyph-name="Kappa" 
 />
    <glyph glyph-name="Lambda" 
 />
    <glyph glyph-name="Mu" 
 />
    <glyph glyph-name="Nu" 
 />
    <glyph glyph-name="Xi" 
 />
    <glyph glyph-name="Omicron" 
 />
    <glyph glyph-name="Pi" 
 />
    <glyph glyph-name="Rho" 
 />
    <glyph glyph-name="Sigma" 
 />
    <glyph glyph-name="Tau" 
 />
    <glyph glyph-name="Upsilon" 
 />
    <glyph glyph-name="Phi" 
 />
    <glyph glyph-name="Chi" 
 />
    <glyph glyph-name="Psi" 
 />
    <glyph glyph-name="uni03A9" 
 />
    <glyph glyph-name="Iotadieresis" 
 />
    <glyph glyph-name="Upsilondieresis" 
 />
    <glyph glyph-name="alphatonos" 
 />
    <glyph glyph-name="epsilontonos" 
 />
    <glyph glyph-name="etatonos" 
 />
    <glyph glyph-name="iotatonos" 
 />
    <glyph glyph-name="upsilondieresistonos" 
 />
    <glyph glyph-name="alpha" 
 />
    <glyph glyph-name="beta" 
 />
    <glyph glyph-name="gamma" 
 />
    <glyph glyph-name="delta" 
 />
    <glyph glyph-name="epsilon" 
 />
    <glyph glyph-name="zeta" 
 />
    <glyph glyph-name="eta" 
 />
    <glyph glyph-name="theta" 
 />
    <glyph glyph-name="iota" 
 />
    <glyph glyph-name="kappa" 
 />
    <glyph glyph-name="lambda" 
 />
    <glyph glyph-name="uni03BC" 
 />
    <glyph glyph-name="nu" 
 />
    <glyph glyph-name="xi" 
 />
    <glyph glyph-name="omicron" 
 />
    <glyph glyph-name="pi" 
 />
    <glyph glyph-name="rho" 
 />
    <glyph glyph-name="uni03C2" 
 />
    <glyph glyph-name="sigma" 
 />
    <glyph glyph-name="tau" 
 />
    <glyph glyph-name="upsilon" 
 />
    <glyph glyph-name="phi" 
 />
    <glyph glyph-name="chi" 
 />
    <glyph glyph-name="psi" 
 />
    <glyph glyph-name="omega" 
 />
    <glyph glyph-name="iotadieresis" 
 />
    <glyph glyph-name="upsilondieresis" 
 />
    <glyph glyph-name="omicrontonos" 
 />
    <glyph glyph-name="upsilontonos" 
 />
    <glyph glyph-name="omegatonos" 
 />
    <glyph glyph-name="uni0401" 
 />
    <glyph glyph-name="uni0402" 
 />
    <glyph glyph-name="uni0403" 
 />
    <glyph glyph-name="uni0404" 
 />
    <glyph glyph-name="uni0405" 
 />
    <glyph glyph-name="uni0406" 
 />
    <glyph glyph-name="uni0407" 
 />
    <glyph glyph-name="uni0408" 
 />
    <glyph glyph-name="uni0409" 
 />
    <glyph glyph-name="uni040A" 
 />
    <glyph glyph-name="uni040B" 
 />
    <glyph glyph-name="uni040E" 
 />
    <glyph glyph-name="uni040F" 
 />
    <glyph glyph-name="uni0410" 
 />
    <glyph glyph-name="uni0411" 
 />
    <glyph glyph-name="uni0412" 
 />
    <glyph glyph-name="uni0413" 
 />
    <glyph glyph-name="uni0414" 
 />
    <glyph glyph-name="uni0415" 
 />
    <glyph glyph-name="uni0416" 
 />
    <glyph glyph-name="uni0417" 
 />
    <glyph glyph-name="uni0418" 
 />
    <glyph glyph-name="uni0419" 
 />
    <glyph glyph-name="uni041A" 
 />
    <glyph glyph-name="uni041B" 
 />
    <glyph glyph-name="uni041C" 
 />
    <glyph glyph-name="uni041D" 
 />
    <glyph glyph-name="uni041E" 
 />
    <glyph glyph-name="uni041F" 
 />
    <glyph glyph-name="uni0420" 
 />
    <glyph glyph-name="uni0421" 
 />
    <glyph glyph-name="uni0422" 
 />
    <glyph glyph-name="uni0423" 
 />
    <glyph glyph-name="uni0424" 
 />
    <glyph glyph-name="uni0425" 
 />
    <glyph glyph-name="uni0426" 
 />
    <glyph glyph-name="uni0427" 
 />
    <glyph glyph-name="uni0428" 
 />
    <glyph glyph-name="uni0429" 
 />
    <glyph glyph-name="uni042A" 
 />
    <glyph glyph-name="uni042B" 
 />
    <glyph glyph-name="uni042C" 
 />
    <glyph glyph-name="uni042D" 
 />
    <glyph glyph-name="uni042E" 
 />
    <glyph glyph-name="uni042F" 
 />
    <glyph glyph-name="uni0430" 
 />
    <glyph glyph-name="uni0431" 
 />
    <glyph glyph-name="uni0432" 
 />
    <glyph glyph-name="uni0433" 
 />
    <glyph glyph-name="uni0434" 
 />
    <glyph glyph-name="uni0435" 
 />
    <glyph glyph-name="uni0436" 
 />
    <glyph glyph-name="uni0437" 
 />
    <glyph glyph-name="uni0438" 
 />
    <glyph glyph-name="uni0439" 
 />
    <glyph glyph-name="uni043A" 
 />
    <glyph glyph-name="uni043B" 
 />
    <glyph glyph-name="uni043C" 
 />
    <glyph glyph-name="uni043D" 
 />
    <glyph glyph-name="uni043E" 
 />
    <glyph glyph-name="uni043F" 
 />
    <glyph glyph-name="uni0440" 
 />
    <glyph glyph-name="uni0441" 
 />
    <glyph glyph-name="uni0442" 
 />
    <glyph glyph-name="uni0443" 
 />
    <glyph glyph-name="uni0444" 
 />
    <glyph glyph-name="uni0445" 
 />
    <glyph glyph-name="uni0446" 
 />
    <glyph glyph-name="uni0447" 
 />
    <glyph glyph-name="uni0448" 
 />
    <glyph glyph-name="uni0449" 
 />
    <glyph glyph-name="uni044A" 
 />
    <glyph glyph-name="uni044B" 
 />
    <glyph glyph-name="uni044C" 
 />
    <glyph glyph-name="uni044D" 
 />
    <glyph glyph-name="uni044E" 
 />
    <glyph glyph-name="uni044F" 
 />
    <glyph glyph-name="uni0451" 
 />
    <glyph glyph-name="uni0452" 
 />
    <glyph glyph-name="uni0453" 
 />
    <glyph glyph-name="uni0454" 
 />
    <glyph glyph-name="uni0455" 
 />
    <glyph glyph-name="uni0456" 
 />
    <glyph glyph-name="uni0457" 
 />
    <glyph glyph-name="uni0458" 
 />
    <glyph glyph-name="uni0459" 
 />
    <glyph glyph-name="uni045A" 
 />
    <glyph glyph-name="uni045B" 
 />
    <glyph glyph-name="uni045C" 
 />
    <glyph glyph-name="uni045D" 
 />
    <glyph glyph-name="uni045E" 
 />
    <glyph glyph-name="uni045F" 
 />
    <glyph glyph-name="uni0490" 
 />
    <glyph glyph-name="uni0491" 
 />
    <glyph glyph-name="Wgrave" 
 />
    <glyph glyph-name="wgrave" 
 />
    <glyph glyph-name="Wacute" 
 />
    <glyph glyph-name="wacute" 
 />
    <glyph glyph-name="Wdieresis" 
 />
    <glyph glyph-name="wdieresis" 
 />
    <glyph glyph-name="uni1E9E" 
 />
    <glyph glyph-name="Ygrave" 
 />
    <glyph glyph-name="ygrave" 
 />
    <glyph glyph-name="endash" 
 />
    <glyph glyph-name="emdash" 
 />
    <glyph glyph-name="quoteleft" 
 />
    <glyph glyph-name="quotedblbase" 
 />
    <glyph glyph-name="dagger" 
 />
    <glyph glyph-name="daggerdbl" 
 />
    <glyph glyph-name="bullet" 
 />
    <glyph glyph-name="ellipsis" 
 />
    <glyph glyph-name="perthousand" 
 />
    <glyph glyph-name="guilsinglleft" 
 />
    <glyph glyph-name="guilsinglright" 
 />
    <glyph glyph-name="fraction" 
 />
    <glyph glyph-name="Euro" 
 />
    <glyph glyph-name="uni20BD" 
 />
    <glyph glyph-name="uni2113" 
 />
    <glyph glyph-name="uni2116" 
 />
    <glyph glyph-name="uni2117" 
 />
    <glyph glyph-name="trademark" 
 />
    <glyph glyph-name="estimated" 
 />
    <glyph glyph-name="uni2150" 
 />
    <glyph glyph-name="uni2151" 
 />
    <glyph glyph-name="uni2152" 
 />
    <glyph glyph-name="uni2153" 
 />
    <glyph glyph-name="uni2154" 
 />
    <glyph glyph-name="uni2155" 
 />
    <glyph glyph-name="uni2156" 
 />
    <glyph glyph-name="uni2157" 
 />
    <glyph glyph-name="uni2158" 
 />
    <glyph glyph-name="uni2159" 
 />
    <glyph glyph-name="uni215A" 
 />
    <glyph glyph-name="oneeighth" 
 />
    <glyph glyph-name="threeeighths" 
 />
    <glyph glyph-name="fiveeighths" 
 />
    <glyph glyph-name="seveneighths" 
 />
    <glyph glyph-name="uni215F" 
 />
    <glyph glyph-name="uni2189" 
 />
    <glyph glyph-name="arrowleft" 
 />
    <glyph glyph-name="arrowup" 
 />
    <glyph glyph-name="arrowright" 
 />
    <glyph glyph-name="arrowdown" 
 />
    <glyph glyph-name="uni2196" 
 />
    <glyph glyph-name="uni2197" 
 />
    <glyph glyph-name="uni2198" 
 />
    <glyph glyph-name="uni2199" 
 />
    <glyph glyph-name="partialdiff" 
 />
    <glyph glyph-name="emptyset" 
 />
    <glyph glyph-name="product" 
 />
    <glyph glyph-name="summation" 
 />
    <glyph glyph-name="minus" 
 />
    <glyph glyph-name="radical" 
 />
    <glyph glyph-name="infinity" 
 />
    <glyph glyph-name="integral" 
 />
    <glyph glyph-name="approxequal" 
 />
    <glyph glyph-name="notequal" 
 />
    <glyph glyph-name="lessequal" 
 />
    <glyph glyph-name="greaterequal" 
 />
    <glyph glyph-name="lozenge" 
 />
    <glyph glyph-name="K.ss01" 
 />
    <glyph glyph-name="K.ss03" 
 />
    <glyph glyph-name="K.ss04" 
 />
    <glyph glyph-name="germandbls.calt" 
 />
    <glyph glyph-name="i.loclTRK" 
 />
    <glyph glyph-name="k.ss01" 
 />
    <glyph glyph-name="k.ss03" 
 />
    <glyph glyph-name="k.ss04" 
 />
    <glyph glyph-name="uni0414.loclBGR" 
 />
    <glyph glyph-name="uni041B.loclBGR" 
 />
    <glyph glyph-name="uni0416.ss01" 
 />
    <glyph glyph-name="uni041A.ss01" 
 />
    <glyph glyph-name="uni0424.ss01" 
 />
    <glyph glyph-name="uni0414.ss02" 
 />
    <glyph glyph-name="uni041B.ss02" 
 />
    <glyph glyph-name="uni0414.ss03" 
 />
    <glyph glyph-name="uni0416.ss03" 
 />
    <glyph glyph-name="uni041A.ss03" 
 />
    <glyph glyph-name="uni041B.ss03" 
 />
    <glyph glyph-name="uni0416.ss04" 
 />
    <glyph glyph-name="uni041A.ss04" 
 />
    <glyph glyph-name="uni0424.ss04" 
 />
    <glyph glyph-name="uni0424.ss05" 
 />
    <glyph glyph-name="uni0432.loclBGR" 
 />
    <glyph glyph-name="uni0433.loclBGR" 
 />
    <glyph glyph-name="uni0434.loclBGR" 
 />
    <glyph glyph-name="uni0436.loclBGR" 
 />
    <glyph glyph-name="uni0437.loclBGR" 
 />
    <glyph glyph-name="uni0438.loclBGR" 
 />
    <glyph glyph-name="uni0439.loclBGR" 
 />
    <glyph glyph-name="uni043A.loclBGR" 
 />
    <glyph glyph-name="uni043B.loclBGR" 
 />
    <glyph glyph-name="uni043F.loclBGR" 
 />
    <glyph glyph-name="uni0442.loclBGR" 
 />
    <glyph glyph-name="uni0446.loclBGR" 
 />
    <glyph glyph-name="uni0448.loclBGR" 
 />
    <glyph glyph-name="uni0449.loclBGR" 
 />
    <glyph glyph-name="uni044E.loclBGR" 
 />
    <glyph glyph-name="uni0436.ss01" 
 />
    <glyph glyph-name="uni043A.ss01" 
 />
    <glyph glyph-name="uni0432.ss02" 
 />
    <glyph glyph-name="uni0433.ss02" 
 />
    <glyph glyph-name="uni0434.ss02" 
 />
    <glyph glyph-name="uni0436.ss02" 
 />
    <glyph glyph-name="uni0437.ss02" 
 />
    <glyph glyph-name="uni0438.ss02" 
 />
    <glyph glyph-name="uni0439.ss02" 
 />
    <glyph glyph-name="uni043A.ss02" 
 />
    <glyph glyph-name="uni043B.ss02" 
 />
    <glyph glyph-name="uni043F.ss02" 
 />
    <glyph glyph-name="uni0442.ss02" 
 />
    <glyph glyph-name="uni0446.ss02" 
 />
    <glyph glyph-name="uni0448.ss02" 
 />
    <glyph glyph-name="uni0449.ss02" 
 />
    <glyph glyph-name="uni044E.ss02" 
 />
    <glyph glyph-name="uni0432.ss03" 
 />
    <glyph glyph-name="uni0433.ss03" 
 />
    <glyph glyph-name="uni0434.ss03" 
 />
    <glyph glyph-name="uni0436.ss03" 
 />
    <glyph glyph-name="uni0437.ss03" 
 />
    <glyph glyph-name="uni0438.ss03" 
 />
    <glyph glyph-name="uni0439.ss03" 
 />
    <glyph glyph-name="uni043A.ss03" 
 />
    <glyph glyph-name="uni043B.ss03" 
 />
    <glyph glyph-name="uni043F.ss03" 
 />
    <glyph glyph-name="uni0442.ss03" 
 />
    <glyph glyph-name="uni0446.ss03" 
 />
    <glyph glyph-name="uni0448.ss03" 
 />
    <glyph glyph-name="uni0449.ss03" 
 />
    <glyph glyph-name="uni044E.ss03" 
 />
    <glyph glyph-name="uni0436.ss04" 
 />
    <glyph glyph-name="uni043A.ss04" 
 />
    <glyph glyph-name="zero.sinf" 
 />
    <glyph glyph-name="one.sinf" 
 />
    <glyph glyph-name="two.sinf" 
 />
    <glyph glyph-name="three.sinf" 
 />
    <glyph glyph-name="four.sinf" 
 />
    <glyph glyph-name="five.sinf" 
 />
    <glyph glyph-name="six.sinf" 
 />
    <glyph glyph-name="seven.sinf" 
 />
    <glyph glyph-name="eight.sinf" 
 />
    <glyph glyph-name="nine.sinf" 
 />
    <glyph glyph-name="zero.tf" 
 />
    <glyph glyph-name="one.tf" 
 />
    <glyph glyph-name="two.tf" 
 />
    <glyph glyph-name="three.tf" 
 />
    <glyph glyph-name="four.tf" 
 />
    <glyph glyph-name="five.tf" 
 />
    <glyph glyph-name="six.tf" 
 />
    <glyph glyph-name="seven.tf" 
 />
    <glyph glyph-name="eight.tf" 
 />
    <glyph glyph-name="nine.tf" 
 />
    <glyph glyph-name="zero.dnom" 
 />
    <glyph glyph-name="one.dnom" 
 />
    <glyph glyph-name="two.dnom" 
 />
    <glyph glyph-name="three.dnom" 
 />
    <glyph glyph-name="four.dnom" 
 />
    <glyph glyph-name="five.dnom" 
 />
    <glyph glyph-name="six.dnom" 
 />
    <glyph glyph-name="seven.dnom" 
 />
    <glyph glyph-name="eight.dnom" 
 />
    <glyph glyph-name="nine.dnom" 
 />
    <glyph glyph-name="zero.numr" 
 />
    <glyph glyph-name="one.numr" 
 />
    <glyph glyph-name="two.numr" 
 />
    <glyph glyph-name="three.numr" 
 />
    <glyph glyph-name="four.numr" 
 />
    <glyph glyph-name="five.numr" 
 />
    <glyph glyph-name="six.numr" 
 />
    <glyph glyph-name="seven.numr" 
 />
    <glyph glyph-name="eight.numr" 
 />
    <glyph glyph-name="nine.numr" 
 />
    <glyph glyph-name="zero.sups" 
 />
    <glyph glyph-name="one.sups" 
 />
    <glyph glyph-name="two.sups" 
 />
    <glyph glyph-name="three.sups" 
 />
    <glyph glyph-name="four.sups" 
 />
    <glyph glyph-name="five.sups" 
 />
    <glyph glyph-name="six.sups" 
 />
    <glyph glyph-name="seven.sups" 
 />
    <glyph glyph-name="eight.sups" 
 />
    <glyph glyph-name="nine.sups" 
 />
    <glyph glyph-name="bullet.case" 
 />
    <glyph glyph-name="braceleft.case" 
 />
    <glyph glyph-name="braceright.case" 
 />
    <glyph glyph-name="bracketleft.case" 
 />
    <glyph glyph-name="bracketright.case" 
 />
    <glyph glyph-name="parenleft.case" 
 />
    <glyph glyph-name="parenright.case" 
 />
    <glyph glyph-name="emdash.case" 
 />
    <glyph glyph-name="endash.case" 
 />
    <glyph glyph-name="hyphen.case" 
 />
    <glyph glyph-name="guillemotleft.case" 
 />
    <glyph glyph-name="guillemotright.case" 
 />
    <glyph glyph-name="guilsinglleft.case" 
 />
    <glyph glyph-name="guilsinglright.case" 
 />
    <glyph glyph-name="cent.tf" 
 />
    <glyph glyph-name="currency.tf" 
 />
    <glyph glyph-name="dollar.tf" 
 />
    <glyph glyph-name="Euro.tf" 
 />
    <glyph glyph-name="florin.tf" 
 />
    <glyph glyph-name="uni20BD.tf" 
 />
    <glyph glyph-name="sterling.tf" 
 />
    <glyph glyph-name="yen.tf" 
 />
    <glyph glyph-name="uni0308.case" 
 />
    <glyph glyph-name="uni0307.case" 
 />
    <glyph glyph-name="gravecomb.case" 
 />
    <glyph glyph-name="acutecomb.case" 
 />
    <glyph glyph-name="uni030B.case" 
 />
    <glyph glyph-name="uni0302.case" 
 />
    <glyph glyph-name="uni030C.case" 
 />
    <glyph glyph-name="uni0306.case" 
 />
    <glyph glyph-name="uni030A.case" 
 />
    <glyph glyph-name="tildecomb.case" 
 />
    <glyph glyph-name="uni0304.case" 
 />
    <glyph glyph-name="uni0326.case" 
 />
    <glyph glyph-name="uni0327.case" 
 />
    <glyph glyph-name="uni0328.case" 
 />
    <glyph glyph-name="uni0335.case" 
 />
    <glyph glyph-name="uni0336.case" 
 />
    <glyph glyph-name="uni0337.case" 
 />
    <glyph glyph-name="uni0338.case" 
 />
    <glyph glyph-name="uni0308.narrow.case" 
 />
    <glyph glyph-name="gravecomb.narrow.case" 
 />
    <glyph glyph-name="acutecomb.narrow.case" 
 />
    <glyph glyph-name="uni0302.narrow.case" 
 />
    <glyph glyph-name="uni0306.narrow.case" 
 />
    <glyph glyph-name="tildecomb.narrow.case" 
 />
    <glyph glyph-name="uni0304.narrow.case" 
 />
    <glyph glyph-name="uni0308.narrow" 
 />
    <glyph glyph-name="gravecomb.narrow" 
 />
    <glyph glyph-name="acutecomb.narrow" 
 />
    <glyph glyph-name="uni0302.narrow" 
 />
    <glyph glyph-name="uni0306.narrow" 
 />
    <glyph glyph-name="tildecomb.narrow" 
 />
    <glyph glyph-name="uni0304.narrow" 
 />
    <glyph glyph-name="tonos.case" 
 />
    <glyph glyph-name="dieresistonos.narrow" 
 />
    <glyph glyph-name="brevecombcy" 
 />
    <glyph glyph-name="brevecombcy.case" 
 />
    <glyph glyph-name="fontfabric" 
 />
    </font>
</defs>
</svg>
